<svg width="348" height="55" viewBox="0 0 348 55" fill="none" xmlns="http://www.w3.org/2000/svg">
<path d="M40.877 18.998H44.6562H45.418C47.6055 18.998 48.6992 19.9355 48.6992 21.8105C48.6992 22.9824 48.25 23.9785 47.3516 24.7988C46.4727 25.5996 45.3789 26 44.0703 26H43.3086H38.0352L32.3516 40.0332C28.4062 49.7207 22.5664 54.5645 14.832 54.5645C10.7891 54.5645 7.43945 53.2559 4.7832 50.6387C2.12695 48.041 0.798828 44.7598 0.798828 40.7949C0.798828 37.709 1.58008 34.7598 3.14258 31.9473C4.72461 29.1348 6.93164 26.7129 9.76367 24.6816C12.166 22.9824 14.959 21.6348 18.1426 20.6387C21.3457 19.6426 24.5 19.1445 27.6055 19.1445L31.7363 19.0273L33.0254 18.998L38.6504 4.84766L38.9727 4.02734C39.4219 2.81641 39.9883 2.01562 40.6719 1.625C41.375 1.21484 42.5469 1.00977 44.1875 1.00977H59.2168C61.9316 1.00977 63.2891 1.9668 63.2891 3.88086C63.2891 5.01367 62.8398 5.99023 61.9414 6.81055C61.043 7.61133 59.9492 8.01172 58.6602 8.01172H57.8691H45.3594L40.877 18.998ZM30.1836 26H28.6016C22.8203 26 18.2012 27.3184 14.7441 29.9551C10.877 32.9043 8.94336 36.2344 8.94336 39.9453C8.94336 41.9375 9.54883 43.6074 10.7598 44.9551C11.9902 46.3027 13.5137 46.9766 15.3301 46.9766C19.5488 46.9766 23.0156 43.627 25.7305 36.9277L30.1836 26ZM61.4727 34.6133H64.5488C67.0293 34.6133 68.2695 35.4824 68.2695 37.2207C68.2695 38.4121 67.8301 39.3398 66.9512 40.0039C66.0918 40.668 64.8809 41 63.3184 41H58.0449C56.5996 41 55.457 40.6582 54.6172 39.9746C53.7773 39.291 53.3574 38.373 53.3574 37.2207C53.3574 36.6152 53.6406 35.6094 54.207 34.2031L66.043 5.08203L66.3652 4.29102C67.2637 2.10352 68.6992 1.00977 70.6719 1.00977C71.4922 1.00977 72.1855 1.2832 72.752 1.83008C73.3379 2.37695 73.6309 3.03125 73.6309 3.79297C73.6309 4.37891 73.4844 5.04297 73.1914 5.78516L72.8691 6.57617L61.4727 34.6133ZM83.123 18.1777C85.9551 18.1777 88.2793 19.0762 90.0957 20.873C91.9316 22.6699 92.8496 24.9551 92.8496 27.7285C92.8496 29.8184 92.3711 31.8984 91.4141 33.9688C90.457 36.0195 89.2168 37.6602 87.6934 38.8906C86.6777 39.6914 85.623 40.248 84.5293 40.5605C83.4551 40.8535 81.9414 41 79.9883 41C76.8047 41 74.6562 40.6191 73.543 39.8574C70.9258 38.0605 69.6172 35.4043 69.6172 31.8887C69.6172 28.1777 70.9551 24.9648 73.6309 22.25C76.3066 19.5352 79.4707 18.1777 83.123 18.1777ZM82.4199 24.418C80.9746 24.418 79.6562 25.1309 78.4648 26.5566C77.2734 27.9824 76.6777 29.5547 76.6777 31.2734C76.6777 33.5391 77.9473 34.6719 80.4863 34.6719C81.9707 34.6719 83.1133 34.2129 83.9141 33.2949C85.2422 31.791 85.9062 30.0723 85.9062 28.1387C85.9062 27.0254 85.584 26.127 84.9395 25.4434C84.2949 24.7598 83.4551 24.418 82.4199 24.418ZM115.789 30.1016L122.674 21.1367L123.23 20.4336C124.383 18.9297 125.652 18.1777 127.039 18.1777C127.918 18.1777 128.641 18.4707 129.207 19.0566C129.773 19.623 130.057 20.3457 130.057 21.2246C130.057 22.1426 129.461 23.3535 128.27 24.8574L117.283 38.6855C115.838 40.502 114.344 41.4102 112.801 41.4102C111.531 41.4102 110.457 40.9316 109.578 39.9746C108.699 39.0176 108.26 37.8457 108.26 36.459C108.26 36.1074 108.289 35.7461 108.348 35.375L109.314 30.1016L103.338 38.6855C102.088 40.502 100.701 41.4102 99.1777 41.4102C97.8691 41.4102 96.7949 40.9023 95.9551 39.8867C95.1152 38.8711 94.6953 37.5625 94.6953 35.9609C94.6953 35.7266 94.7051 35.5312 94.7246 35.375L95.5449 23.0996C95.6621 21.5176 96.0723 20.3066 96.7754 19.4668C97.498 18.6074 98.4746 18.1777 99.7051 18.1777C101.541 18.1777 102.459 19.1836 102.459 21.1953C102.459 21.5273 102.439 21.8984 102.4 22.3086L101.58 30.5117L108.113 21.166C109.5 19.1738 111.111 18.1777 112.947 18.1777C114.08 18.1777 114.979 18.5 115.643 19.1445C116.307 19.7891 116.639 20.6582 116.639 21.752C116.639 22.2012 116.629 22.5332 116.609 22.748L115.789 30.1016ZM135.594 32.416C135.594 33.8809 136.697 34.6133 138.904 34.6133H147.605C150.066 34.6133 151.297 35.4824 151.297 37.2207C151.297 38.4121 150.857 39.3398 149.979 40.0039C149.119 40.668 147.908 41 146.346 41H138.055C134.969 41 132.615 40.2383 130.994 38.7148C129.393 37.1914 128.592 34.9648 128.592 32.0352C128.592 28.2656 129.861 25.0137 132.4 22.2793C134.959 19.5449 137.996 18.1777 141.512 18.1777C144.07 18.1777 146.121 18.8516 147.664 20.1992C149.227 21.5273 150.008 23.2852 150.008 25.4727C150.008 28.1094 148.934 30.0625 146.785 31.332C145.594 32.0547 143.816 32.416 141.453 32.416H135.594ZM137 27.084H140.223C142.312 27.084 143.328 26.625 143.27 25.707C143.211 24.6719 142.537 24.1543 141.248 24.1543C139.451 24.1543 138.035 25.1309 137 27.084ZM159.734 25.0039L158.738 27.4648C157.84 29.6523 156.668 30.7461 155.223 30.7461C154.344 30.7461 153.611 30.4824 153.025 29.9551C152.439 29.4277 152.146 28.7734 152.146 27.9922C152.146 27.543 152.361 26.7812 152.791 25.707L156.102 17.5332C156.902 15.5605 158.035 14.5742 159.5 14.5742C160.945 14.5742 161.834 15.2578 162.166 16.625L162.4 17.5332C162.518 18.002 162.693 18.2949 162.928 18.4121C163.162 18.5293 163.738 18.5879 164.656 18.5879H171.512C174.07 18.5879 175.35 19.4863 175.35 21.2832C175.35 23.7637 173.729 25.0039 170.486 25.0039L170.164 25.2969C167.059 28.2656 165.506 30.5605 165.506 32.1816C165.506 33.8027 166.404 34.6133 168.201 34.6133H171.893C174.373 34.6133 175.613 35.4727 175.613 37.1914C175.613 38.4023 175.174 39.3398 174.295 40.0039C173.436 40.668 172.225 41 170.662 41H164.92C162.967 41 161.365 40.3262 160.115 38.9785C158.885 37.6309 158.27 35.8828 158.27 33.7344C158.27 32.3672 158.602 31.0391 159.266 29.75C159.93 28.4609 161.102 26.8789 162.781 25.0039H159.734Z" fill="black"/>
<path d="M227.088 22.8652L233.27 39.6816C233.816 41.127 234.988 41.8496 236.785 41.8496H246.277C249.031 41.8496 250.408 42.8164 250.408 44.75C250.408 46.0781 249.92 47.1133 248.943 47.8555C247.967 48.6172 246.609 48.998 244.871 48.998H235.145C232.566 48.998 230.75 48.6367 229.695 47.9141C228.641 47.2109 227.684 45.7266 226.824 43.4609L219.061 22.4844L212.996 37.3965C211.824 40.3262 210.154 41.791 207.986 41.791C207.088 41.791 206.316 41.498 205.672 40.9121C205.027 40.3262 204.705 39.6328 204.705 38.832C204.705 38.1875 204.871 37.4453 205.203 36.6055L205.555 35.7559L213.172 17.0059C214.324 14.1543 214.9 12.1816 214.9 11.0879C214.9 10.1309 214.48 9.31055 213.641 8.62695C212.82 7.92383 211.854 7.57227 210.74 7.57227C208.748 7.57227 206.951 8.41211 205.35 10.0918C203.768 11.752 202.977 13.6172 202.977 15.6875C202.977 17.9531 204.197 19.5254 206.639 20.4043C208.123 20.9316 208.865 21.8496 208.865 23.1582C208.865 24.252 208.436 25.1602 207.576 25.8828C206.736 26.5859 205.682 26.9375 204.412 26.9375C201.971 26.9375 199.881 25.9023 198.143 23.832C196.404 21.7617 195.535 19.291 195.535 16.4199C195.535 12.1426 197.127 8.41211 200.311 5.22852C203.514 2.02539 207.264 0.423828 211.561 0.423828C214.764 0.423828 217.439 1.36133 219.588 3.23633C221.736 5.11133 222.811 7.45508 222.811 10.2676C222.811 12.2598 222.303 14.5059 221.287 17.0059L220.262 19.4961L235.643 3.41211C237.303 1.67383 238.816 0.804688 240.184 0.804688C241.121 0.804688 241.902 1.11719 242.527 1.74219C243.152 2.34766 243.465 3.11914 243.465 4.05664C243.465 5.20898 242.674 6.61523 241.092 8.27539L227.088 22.8652ZM260.838 34.6133H264.354C266.834 34.6133 268.074 35.4824 268.074 37.2207C268.074 38.4121 267.635 39.3398 266.756 40.0039C265.877 40.668 264.666 41 263.123 41H257C255.809 41 254.803 40.6387 253.982 39.916C253.182 39.1934 252.781 38.2852 252.781 37.1914C252.781 36.5273 253.055 35.5312 253.602 34.2031L256.18 27.8164C256.453 27.1523 256.6 26.6152 256.619 26.2051C256.639 25.7363 256.443 25.3359 256.033 25.0039C255.643 24.6719 255.135 24.5059 254.51 24.5059C252.498 24.5059 250.877 26.0195 249.646 29.0469L246.189 37.543C245.154 40.1211 243.611 41.4102 241.561 41.4102C240.721 41.4102 240.008 41.1562 239.422 40.6484C238.836 40.1406 238.543 39.5156 238.543 38.7734C238.543 38.2266 238.699 37.5723 239.012 36.8105L239.334 36.0195L245.252 21.4297C246.014 19.5352 247.312 18.5879 249.148 18.5879C250.652 18.5879 251.727 19.252 252.371 20.5801C254.461 18.9785 256.453 18.1777 258.348 18.1777C260.184 18.1777 261.697 18.7051 262.889 19.7598C264.08 20.8145 264.676 22.1523 264.676 23.7734C264.676 24.6719 264.461 25.6582 264.031 26.7324L260.838 34.6133ZM282.752 18.1777C285.584 18.1777 287.908 19.0762 289.725 20.873C291.561 22.6699 292.479 24.9551 292.479 27.7285C292.479 29.8184 292 31.8984 291.043 33.9688C290.086 36.0195 288.846 37.6602 287.322 38.8906C286.307 39.6914 285.252 40.248 284.158 40.5605C283.084 40.8535 281.57 41 279.617 41C276.434 41 274.285 40.6191 273.172 39.8574C270.555 38.0605 269.246 35.4043 269.246 31.8887C269.246 28.1777 270.584 24.9648 273.26 22.25C275.936 19.5352 279.1 18.1777 282.752 18.1777ZM282.049 24.418C280.604 24.418 279.285 25.1309 278.094 26.5566C276.902 27.9824 276.307 29.5547 276.307 31.2734C276.307 33.5391 277.576 34.6719 280.115 34.6719C281.6 34.6719 282.742 34.2129 283.543 33.2949C284.871 31.791 285.535 30.0723 285.535 28.1387C285.535 27.0254 285.213 26.127 284.568 25.4434C283.924 24.7598 283.084 24.418 282.049 24.418ZM315.418 30.1016L322.303 21.1367L322.859 20.4336C324.012 18.9297 325.281 18.1777 326.668 18.1777C327.547 18.1777 328.27 18.4707 328.836 19.0566C329.402 19.623 329.686 20.3457 329.686 21.2246C329.686 22.1426 329.09 23.3535 327.898 24.8574L316.912 38.6855C315.467 40.502 313.973 41.4102 312.43 41.4102C311.16 41.4102 310.086 40.9316 309.207 39.9746C308.328 39.0176 307.889 37.8457 307.889 36.459C307.889 36.1074 307.918 35.7461 307.977 35.375L308.943 30.1016L302.967 38.6855C301.717 40.502 300.33 41.4102 298.807 41.4102C297.498 41.4102 296.424 40.9023 295.584 39.8867C294.744 38.8711 294.324 37.5625 294.324 35.9609C294.324 35.7266 294.334 35.5312 294.354 35.375L295.174 23.0996C295.291 21.5176 295.701 20.3066 296.404 19.4668C297.127 18.6074 298.104 18.1777 299.334 18.1777C301.17 18.1777 302.088 19.1836 302.088 21.1953C302.088 21.5273 302.068 21.8984 302.029 22.3086L301.209 30.5117L307.742 21.166C309.129 19.1738 310.74 18.1777 312.576 18.1777C313.709 18.1777 314.607 18.5 315.271 19.1445C315.936 19.7891 316.268 20.6582 316.268 21.752C316.268 22.2012 316.258 22.5332 316.238 22.748L315.418 30.1016ZM337.947 26.5859L337.391 27.9336C336.531 29.8672 335.311 30.834 333.729 30.834C332.928 30.834 332.205 30.5605 331.561 30.0137C330.936 29.4473 330.623 28.8027 330.623 28.0801C330.623 27.3965 330.906 26.4883 331.473 25.3555L335.369 17.4453C336.326 15.5508 337.518 14.6035 338.943 14.6035C339.705 14.6035 340.359 14.8574 340.906 15.3652C341.453 15.8535 341.727 16.4395 341.727 17.123C341.727 17.2988 341.668 17.6797 341.551 18.2656C341.473 18.6953 341.434 19.0762 341.434 19.4082C341.434 20.6387 341.893 21.8984 342.811 23.1875L344.48 25.502C346.18 27.8652 347.029 30.1504 347.029 32.3574C347.029 34.8184 346.111 36.8789 344.275 38.5391C342.439 40.1797 340.154 41 337.42 41H331.297C328.816 41 327.576 40.1406 327.576 38.4219C327.576 37.2305 328.016 36.3027 328.895 35.6387C329.773 34.9551 330.984 34.6133 332.527 34.6133H335.926C338.641 34.6133 339.998 33.627 339.998 31.6543C339.998 30.9316 339.744 30.082 339.236 29.1055L337.947 26.5859Z" fill="#873D3D"/>
</svg>
