<svg width="268" height="93" viewBox="0 0 268 93" fill="none" xmlns="http://www.w3.org/2000/svg">
<path d="M134 77.6914L157.457 91.928C161.753 94.5371 167.01 90.6802 165.879 85.8023L159.662 59.0307L180.406 40.994C184.193 37.7042 182.158 31.4651 177.184 31.0681L149.883 28.7426L139.2 3.44571C137.279 -1.14857 130.722 -1.14857 128.8 3.44571L118.117 28.6858L90.8163 31.0113C85.8422 31.4084 83.8074 37.6475 87.5944 40.9372L108.339 58.974L102.121 85.7456C100.99 90.6235 106.247 94.4804 110.543 91.8713L134 77.6914Z" fill="#E4A951"/>
<path d="M239.059 83.7483L253.095 92.2659C255.665 93.8269 258.811 91.5193 258.134 88.601L254.414 72.5838L266.826 61.7925C269.092 59.8243 267.875 56.0915 264.899 55.854L248.563 54.4626L242.171 39.3278C241.021 36.5791 237.097 36.5791 235.947 39.3278L229.555 54.4287L213.219 55.82C210.243 56.0576 209.026 59.7904 211.292 61.7586L223.704 72.5498L219.984 88.567C219.307 91.4854 222.453 93.793 225.023 92.232L239.059 83.7483Z" fill="#E4A951"/>
<path d="M28.9408 83.7483L42.9767 92.2659C45.5471 93.8269 48.6925 91.5193 48.0161 88.601L44.2957 72.5838L56.7082 61.7925C58.9742 59.8243 57.7567 56.0915 54.7804 55.854L38.4446 54.4626L32.0524 39.3278C30.9025 36.5791 26.9792 36.5791 25.8293 39.3278L19.437 54.4287L3.10128 55.82C0.124995 56.0576 -1.09258 59.7904 1.17346 61.7586L13.5859 72.5498L9.86556 88.567C9.18913 91.4854 12.3345 93.793 14.9049 92.232L28.9408 83.7483Z" fill="#E4A951"/>
</svg>
