<svg width="43" height="43" viewBox="0 0 43 43" fill="none" xmlns="http://www.w3.org/2000/svg">
<g clip-path="url(#clip0_60_247)">
<path fill-rule="evenodd" clip-rule="evenodd" d="M21.5 24.0334L31.6355 34.1689C31.9734 34.4952 32.426 34.6758 32.8958 34.6718C33.3655 34.6677 33.8149 34.4792 34.1471 34.1471C34.4793 33.8149 34.6677 33.3655 34.6718 32.8957C34.6759 32.426 34.4953 31.9734 34.1689 31.6355L24.0334 21.5L34.1689 11.3645C34.4953 11.0266 34.6759 10.5741 34.6718 10.1043C34.6677 9.63452 34.4793 9.18514 34.1471 8.85295C33.8149 8.52076 33.3655 8.33234 32.8958 8.32825C32.426 8.32417 31.9734 8.50476 31.6355 8.83113L21.5 18.9666L11.3646 8.83113C11.0251 8.51283 10.5752 8.33907 10.1099 8.34663C9.64466 8.35418 9.20058 8.54246 8.87166 8.87161C8.54274 9.20076 8.35479 9.64497 8.34756 10.1102C8.34033 10.5755 8.51441 11.0253 8.83295 11.3645L18.9666 21.5L8.83115 31.6355C8.66003 31.8007 8.52354 31.9984 8.42964 32.217C8.33574 32.4356 8.28631 32.6707 8.28425 32.9086C8.28218 33.1465 8.32751 33.3824 8.4176 33.6026C8.50769 33.8228 8.64072 34.0229 8.80895 34.1911C8.97717 34.3593 9.17721 34.4923 9.3974 34.5824C9.61759 34.6725 9.85352 34.7179 10.0914 34.7158C10.3293 34.7137 10.5644 34.6643 10.783 34.5704C11.0016 34.4765 11.1993 34.34 11.3646 34.1689L21.5 24.0334Z" fill="black"/>
</g>
<defs>
<clipPath id="clip0_60_247">
<rect width="43" height="43" fill="white"/>
</clipPath>
</defs>
</svg>
