<svg width="63" height="63" viewBox="0 0 63 63" fill="none" xmlns="http://www.w3.org/2000/svg">
<path d="M60.0778 13.4267C59.8776 13.1872 59.6273 12.9946 59.3445 12.8624C59.0617 12.7302 58.7533 12.6617 58.4412 12.6618H15.4423L14.1389 5.50239C13.9604 4.51973 13.4426 3.6309 12.6759 2.99086C11.9092 2.35081 10.9422 2.00014 9.94347 2H5.13235C4.56682 2 4.02445 2.22466 3.62455 2.62455C3.22466 3.02445 3 3.56682 3 4.13235C3 4.69789 3.22466 5.24026 3.62455 5.64015C4.02445 6.04005 4.56682 6.26471 5.13235 6.26471H9.93015L16.743 43.6582C16.9437 44.7672 17.4338 45.8034 18.1637 46.6621C17.1563 47.6031 16.4292 48.8047 16.0629 50.1336C15.6967 51.4626 15.7058 52.867 16.089 54.1912C16.4722 55.5153 17.2147 56.7075 18.2341 57.6354C19.2535 58.5633 20.51 59.1908 21.8643 59.4482C23.2185 59.7057 24.6176 59.583 25.9064 59.0938C27.1952 58.6046 28.3233 57.7681 29.1657 56.6769C30.0081 55.5857 30.5318 54.2826 30.6787 52.9119C30.8257 51.5413 30.5901 50.1567 29.9983 48.9118H42.1047C41.6276 49.9105 41.3808 51.0035 41.3824 52.1103C41.3824 53.5864 41.8201 55.0293 42.6401 56.2566C43.4602 57.484 44.6258 58.4405 45.9895 59.0054C47.3533 59.5703 48.8539 59.7181 50.3016 59.4301C51.7493 59.1422 53.0791 58.4314 54.1229 57.3876C55.1666 56.3438 55.8774 55.014 56.1654 53.5663C56.4534 52.1186 56.3056 50.618 55.7407 49.2542C55.1758 47.8905 54.2193 46.7249 52.9919 45.9048C51.7646 45.0848 50.3217 44.6471 48.8456 44.6471H23.0361C22.5368 44.647 22.0532 44.4717 21.6699 44.1516C21.2866 43.8316 21.0277 43.3872 20.9384 42.8959L20.0935 38.25H51.0126C52.5107 38.2498 53.9612 37.7238 55.1113 36.7637C56.2613 35.8036 57.0379 34.4704 57.3057 32.9964L60.5469 15.1753C60.6017 14.8673 60.5882 14.5509 60.5071 14.2488C60.426 13.9466 60.2794 13.6659 60.0778 13.4267ZM26.4559 52.1103C26.4559 52.7429 26.2683 53.3613 25.9168 53.8873C25.5654 54.4133 25.0658 54.8233 24.4814 55.0653C23.8969 55.3074 23.2538 55.3708 22.6333 55.2474C22.0129 55.1239 21.443 54.8193 20.9956 54.372C20.5483 53.9247 20.2437 53.3547 20.1203 52.7343C19.9969 52.1138 20.0602 51.4707 20.3023 50.8863C20.5444 50.3018 20.9543 49.8023 21.4803 49.4508C22.0063 49.0994 22.6247 48.9118 23.2574 48.9118C24.1057 48.9118 24.9192 49.2488 25.5191 49.8486C26.1189 50.4484 26.4559 51.262 26.4559 52.1103ZM52.0441 52.1103C52.0441 52.7429 51.8565 53.3613 51.5051 53.8873C51.1536 54.4133 50.6541 54.8233 50.0696 55.0653C49.4852 55.3074 48.842 55.3708 48.2216 55.2474C47.6011 55.1239 47.0312 54.8193 46.5839 54.372C46.1366 53.9247 45.8319 53.3547 45.7085 52.7343C45.5851 52.1138 45.6484 51.4707 45.8905 50.8863C46.1326 50.3018 46.5426 49.8023 47.0686 49.4508C47.5946 49.0994 48.213 48.9118 48.8456 48.9118C49.6939 48.9118 50.5074 49.2488 51.1073 49.8486C51.7071 50.4484 52.0441 51.262 52.0441 52.1103ZM53.1103 32.2341C53.0208 32.7268 52.7607 33.1722 52.3757 33.4924C51.9907 33.8126 51.5053 33.9871 51.0046 33.9853H19.3178L16.2179 16.9265H55.885L53.1103 32.2341Z" fill="black"/>
</svg>
