<svg width="63" height="63" viewBox="0 0 63 63" fill="none" xmlns="http://www.w3.org/2000/svg">
<path fill-rule="evenodd" clip-rule="evenodd" d="M31.2028 35.8833C34.513 35.8833 37.6876 34.5683 40.0283 32.2276C42.369 29.8869 43.6839 26.7123 43.6839 23.4021C43.6839 20.0919 42.369 16.9173 40.0283 14.5766C37.6876 12.236 34.513 10.921 31.2028 10.921C27.8926 10.921 24.718 12.236 22.3773 14.5766C20.0367 16.9173 18.7217 20.0919 18.7217 23.4021C18.7217 26.7123 20.0367 29.8869 22.3773 32.2276C24.718 34.5683 27.8926 35.8833 31.2028 35.8833ZM31.2028 32.763C32.4321 32.763 33.6493 32.5208 34.7851 32.0504C35.9208 31.58 36.9527 30.8905 37.8219 30.0212C38.6912 29.152 39.3807 28.1201 39.8511 26.9844C40.3215 25.8487 40.5637 24.6314 40.5637 23.4021C40.5637 22.1728 40.3215 20.9556 39.8511 19.8199C39.3807 18.6842 38.6912 17.6522 37.8219 16.783C36.9527 15.9138 35.9208 15.2243 34.7851 14.7538C33.6493 14.2834 32.4321 14.0413 31.2028 14.0413C28.7202 14.0413 26.3392 15.0275 24.5837 16.783C22.8282 18.5385 21.842 20.9195 21.842 23.4021C21.842 25.8848 22.8282 28.2657 24.5837 30.0212C26.3392 31.7767 28.7202 32.763 31.2028 32.763Z" fill="black"/>
<path fill-rule="evenodd" clip-rule="evenodd" d="M62.4057 31.2028C62.4057 48.4361 48.4361 62.4057 31.2028 62.4057C13.9695 62.4057 0 48.4361 0 31.2028C0 13.9695 13.9695 0 31.2028 0C48.4361 0 62.4057 13.9695 62.4057 31.2028ZM46.227 54.9326C41.7353 57.7839 36.5231 59.2939 31.2028 59.2854C25.7556 59.2938 20.4245 57.7104 15.8651 54.7298C15.4906 54.2617 15.11 53.7781 14.7262 53.2788C14.2802 52.6939 14.0395 51.9784 14.0413 51.2428C14.0413 49.5626 15.2488 48.1538 16.8636 47.9182C27.5427 46.358 34.8957 46.4922 45.5889 47.9728C46.3633 48.085 47.0709 48.4737 47.5811 49.067C48.0912 49.6604 48.3695 50.4182 48.3644 51.2007C48.3644 51.9496 48.107 52.6766 47.642 53.2445C47.1631 53.828 46.6904 54.3912 46.227 54.9326ZM51.4613 50.6516C51.2116 47.731 48.9947 45.294 46.0164 44.8822C35.0704 43.3673 27.4195 43.2222 16.4127 44.8307C13.4172 45.2675 11.2096 47.7263 10.9475 50.6547C5.91656 45.4299 3.11037 38.456 3.12028 31.2028C3.12028 15.6935 15.6935 3.12028 31.2028 3.12028C46.7122 3.12028 59.2854 15.6935 59.2854 31.2028C59.2953 38.4545 56.4903 45.427 51.4613 50.6516Z" fill="black"/>
</svg>
